<svg xmlns="http://www.w3.org/2000/svg" width="28" height="28" viewBox="0 0 28 28" fill="none">
  <path d="M21 11.667H16.3333C15.0446 11.667 14 10.6223 14 9.33366V4.66699M14 16.917V14.0003M14 16.917V19.8337M14 16.917H11.0833M14 16.917H16.9167M21 11.4668V21.0003C21 22.289 19.9554 23.3337 18.6667 23.3337H9.33333C8.04467 23.3337 7 22.289 7 21.0003V7.00033C7 5.71166 8.04467 4.66699 9.33333 4.66699H14.2002C14.819 4.66699 15.4125 4.91282 15.8501 5.35041L20.3166 9.8169C20.7542 10.2545 21 10.848 21 11.4668Z" stroke="currentColor" stroke-width="1.5" stroke-linecap="round"/>
</svg>