<svg xmlns="http://www.w3.org/2000/svg" width="26" height="26" viewBox="0 0 26 26" fill="none">
  <path d="M19.4998 19.4993V16.791M19.4998 19.4993V22.2077M19.4998 19.4993H16.7915M19.4998 19.4993H22.2082M16.2498 15.3005C15.2546 14.8656 14.1554 14.6243 12.9998 14.6243C9.25389 14.6243 6.09999 17.1593 5.16016 20.6075C4.84548 21.762 5.84493 22.7493 7.04155 22.7493H14.0832M16.7915 7.58268C16.7915 9.67677 15.0939 11.3743 12.9998 11.3743C10.9058 11.3743 9.20821 9.67677 9.20821 7.58268C9.20821 5.4886 10.9058 3.79102 12.9998 3.79102C15.0939 3.79102 16.7915 5.4886 16.7915 7.58268Z" stroke="currentColor" stroke-width="2" stroke-linecap="round"/>
</svg>