<svg xmlns="http://www.w3.org/2000/svg" width="16" height="23" viewBox="0 0 16 23" fill="none">
  <g filter="url(#filter0_d_272_181)">
    <path d="M8 3.25C8.41421 3.25 8.75 2.91421 8.75 2.5C8.75 2.08579 8.41421 1.75 8 1.75C7.58579 1.75 7.25 2.08579 7.25 2.5C7.25 2.91421 7.58579 3.25 8 3.25Z" fill="black" stroke="black" stroke-linecap="round" stroke-linejoin="round"/>
    <path d="M8 8.75C8.41421 8.75 8.75 8.41421 8.75 8C8.75 7.58579 8.41421 7.25 8 7.25C7.58579 7.25 7.25 7.58579 7.25 8C7.25 8.41421 7.58579 8.75 8 8.75Z" fill="black" stroke="black" stroke-linecap="round" stroke-linejoin="round"/>
    <path d="M8 14.25C8.41421 14.25 8.75 13.9142 8.75 13.5C8.75 13.0858 8.41421 12.75 8 12.75C7.58579 12.75 7.25 13.0858 7.25 13.5C7.25 13.9142 7.58579 14.25 8 14.25Z" fill="black" stroke="black" stroke-linecap="round" stroke-linejoin="round"/>
  </g>
  <defs>
    <filter id="filter0_d_272_181" x="-4" y="0" width="24" height="24" filterUnits="userSpaceOnUse" color-interpolation-filters="sRGB">
      <feFlood flood-opacity="0" result="BackgroundImageFix"/>
      <feColorMatrix in="SourceAlpha" type="matrix" values="0 0 0 0 0 0 0 0 0 0 0 0 0 0 0 0 0 0 127 0" result="hardAlpha"/>
      <feOffset dy="4"/>
      <feGaussianBlur stdDeviation="2"/>
      <feComposite in2="hardAlpha" operator="out"/>
      <feColorMatrix type="matrix" values="0 0 0 0 0 0 0 0 0 0 0 0 0 0 0 0 0 0 0.25 0"/>
      <feBlend mode="normal" in2="BackgroundImageFix" result="effect1_dropShadow_272_181"/>
      <feBlend mode="normal" in="SourceGraphic" in2="effect1_dropShadow_272_181" result="shape"/>
    </filter>
  </defs>
</svg>