<svg xmlns="http://www.w3.org/2000/svg" width="204" height="64" viewBox="0 0 204 64" fill="none">
  <path fill-rule="evenodd" clip-rule="evenodd" d="M26.3125 0.0130152L38.8935 0C38.9331 10.4204 38.8935 20.8799 38.9133 31.3068C39.0057 36.4357 44.4344 38.3818 52.4849 38.7723C43.3975 39.1108 39.2567 41.8574 38.9463 46.4135L38.9661 63.9675L26.4116 64C26.3984 58.0901 26.3785 52.2062 26.3785 46.3094C26.7748 41.8574 30.7505 39.5664 39.2369 39.0326C29.007 37.9587 26.3323 35.1339 26.3521 31.2092L26.3125 0.0130152Z" fill="#003DA6"/>
  <path fill-rule="evenodd" clip-rule="evenodd" d="M119.959 28.3188C120.804 28.3188 121.293 28.7614 121.088 29.3146C120.837 29.8483 120.011 30.2844 119.153 30.2779C118.36 30.2909 117.839 29.8483 118.083 29.3146C118.268 28.7614 119.133 28.3188 119.959 28.3188ZM115.131 44.1219H116.775L119.516 32.9139H117.845L115.131 44.1219ZM177.884 32.4583H176.233L175.744 34.3914C174.166 32.992 172.039 32.1394 168.895 32.3347C165.362 32.4778 162.595 33.682 160.7 36.1553C159.306 38.2576 159.148 40.2492 160.218 42.1563C161.816 43.855 163.982 44.5254 166.531 44.4864C169.127 44.4864 171.524 43.7119 173.802 42.4557L173.386 44.1154L175.057 44.1414L177.884 32.4648V32.4583ZM174.839 38.238C175.295 36.305 174.502 34.8405 172.574 34.0464C169.965 33.0506 166.927 33.1352 163.896 35.0488C162.087 36.2203 160.937 38.0753 161.307 40.054C161.743 42.1042 163.473 43.0545 165.99 43.2888C168.044 43.432 169.952 43.0415 171.808 42.1107C173.518 41.1019 174.423 39.9238 174.839 38.238ZM189.342 37.457L202.266 37.431C202.24 34.8926 200.246 33.35 196.976 33.3305C193.172 33.3695 189.884 35.2766 189.342 37.4505M188.979 38.6481C193.952 38.6416 198.878 38.6221 203.825 38.6221C204.703 35.1139 202.233 32.3021 197.326 32.2696C192.796 32.224 189.851 33.8577 188.015 36.6174C186.945 38.5765 186.661 40.464 188.107 42.306C189.857 44.0243 191.97 44.5189 194.236 44.4538C198.37 44.2456 200.8 42.9243 202.61 41.1995C202.154 41.0563 201.731 40.8936 201.296 40.7504C199.407 42.2864 197.274 43.4515 194.236 43.3604C190.372 43.0415 188.338 41.6486 188.979 38.6546M95.8665 38.6676C96.3354 36.702 95.5231 35.218 93.5947 34.3914C90.9794 33.3891 87.9084 33.4867 84.8771 35.4263C83.0346 36.6239 81.9119 38.4984 82.2949 40.5226C82.7176 42.5858 84.4479 43.5817 86.9971 43.829C89.051 43.9657 90.9728 43.5817 92.822 42.6184C94.5522 41.5965 95.4636 40.3989 95.8665 38.6676ZM98.911 32.7903H97.2732L96.7977 34.7689C95.2127 33.3305 93.0663 32.4388 89.8765 32.6471C86.3367 32.7838 83.5563 34.0204 81.6675 36.5328C80.274 38.6936 80.1023 40.7048 81.1722 42.6574C82.7968 44.4083 84.963 45.0917 87.5122 45.0331C90.1341 45.0331 92.5578 44.2586 94.823 42.9178L94.4136 44.6556L96.091 44.6817L98.8978 32.7968L98.911 32.7903ZM78.7551 40.7244C73.1745 43.6923 67.7393 44.6166 62.238 42.1367C58.9821 40.6007 57.3113 38.2706 58.2359 34.7819C59.6558 30.4406 65.4278 26.9324 72.6594 26.5159C76.1464 26.4898 79.0787 27.4011 81.4496 29.2105C81.5618 28.6833 81.6741 28.0845 81.76 27.5377C78.5635 25.5396 74.4557 24.7781 69.0271 25.7348C64.3381 26.7111 60.402 28.6117 57.7273 32.0353C55.6536 35.2636 55.0196 38.5049 58.6718 41.8113C64.4174 45.9053 71.1404 45.6645 78.4249 42.3255C78.5305 41.7983 78.6362 41.2581 78.7551 40.7244ZM100.846 33.7535L105.41 44.7923L115.012 33.6494H113.328L105.984 42.1628L102.457 33.734L100.846 33.747V33.7535ZM121.847 44.1154H123.716L125.341 37.8736C126.662 34.0269 129.495 33.0636 133.398 33.2068C135.412 33.4216 136.396 34.3263 135.888 36.7866C135.254 39.2274 134.626 41.6681 133.979 44.1219H135.914L137.968 36.3831C138.529 33.311 136.654 32.0483 133.88 31.9376C130.862 31.827 128.418 32.595 126.365 33.9618L126.767 32.3737H124.918L121.847 44.1089V44.1154ZM140.28 44.0894H141.911L143.958 35.8884L144.777 35.4588L156.638 44.0763L158.936 44.0894L146.395 34.6062L162.087 26.0993H159.412L144.368 34.3068L146.395 26.1123L144.751 26.0993L140.28 44.0828V44.0894ZM180.202 44.0373L182.368 32.2631L184.065 32.25L183.775 33.8447C185.261 32.2761 187.11 31.9832 189.184 32.5559L188.259 33.7926C185.432 33.311 183.682 34.2352 183.233 36.8777L181.793 44.0503L180.195 44.0308L180.202 44.0373Z" fill="#003DA6"/>
  <path fill-rule="evenodd" clip-rule="evenodd" d="M36.4091 6.52826C30.1153 8.29212 23.6696 10.9412 17.9042 14.6771H17.8315C5.46189 22.5266 1.67109 31.1832 0.508757 35.8304C0.469132 35.9671 0.442717 36.1103 0.409696 36.247C0.33705 36.5789 0.271006 36.8913 0.224777 37.1777C0.204964 37.2949 0.178549 37.412 0.158736 37.5357C-0.0129725 38.6096 0.000234761 39.2214 0.000234761 39.2214L0.0398607 39.1694C-0.098827 45.9775 4.62316 53.7293 16.6097 55.3044C30.3729 57.1334 44.5322 54.4388 55.3565 47.9821C44.6445 52.5903 33.0938 54.4518 22.4412 52.8246C1.15597 49.5833 4.76845 30.9554 22.6856 18.4847C44.3539 3.39758 77.9824 0.969837 78.3522 21.7586C79.607 5.76024 59.6228 0.0390935 36.4223 6.52826" fill="#EC174F"/>
  <path fill-rule="evenodd" clip-rule="evenodd" d="M69.9979 51.1914H71.8273L72.8443 59.0474L77.2295 51.1914H79.039L77.038 60.4858H75.8228L77.0049 54.999C77.038 54.8102 77.1172 54.4913 77.2163 54.0552C77.3219 53.6191 77.4276 53.1505 77.5333 52.6428L73.1547 60.4858H71.8933L70.8697 52.6428L70.8036 52.9292C70.7574 53.157 70.6847 53.502 70.5989 53.9706C70.513 54.4392 70.4404 54.7777 70.3942 54.999L69.212 60.4858H67.9902L69.9913 51.1914H69.9979Z" fill="#003DA6"/>
  <path fill-rule="evenodd" clip-rule="evenodd" d="M83.3918 56.3795C83.6626 56.3469 83.8673 56.2363 83.9994 56.054C84.0721 55.9564 84.1315 55.8067 84.1711 55.6179C84.2504 55.2339 84.1711 54.9475 83.9334 54.7783C83.689 54.6026 83.306 54.518 82.7842 54.518C82.1833 54.518 81.721 54.6742 81.3974 54.9996C81.2191 55.1754 81.0672 55.4422 80.9549 55.7872H79.8784C80.0765 54.9541 80.4794 54.3683 81.0738 54.0428C81.6747 53.7174 82.322 53.5547 83.022 53.5547C83.8343 53.5547 84.4551 53.7109 84.891 54.0103C85.3269 54.3097 85.4788 54.7848 85.3401 55.4292L84.5013 59.3344C84.4749 59.4516 84.4815 59.5492 84.5079 59.6208C84.541 59.6924 84.64 59.7314 84.7985 59.7314C84.8448 59.7314 84.9108 59.7314 84.9768 59.7249C85.0429 59.7249 85.1155 59.7119 85.1882 59.6989L85.0033 60.5385C84.8117 60.5906 84.673 60.6166 84.574 60.6361C84.4749 60.6492 84.3494 60.6557 84.1843 60.6557C83.7881 60.6557 83.5305 60.5125 83.4116 60.2326C83.3456 60.0829 83.3258 59.8746 83.3456 59.6078C83.0418 59.9137 82.6456 60.174 82.1569 60.4018C81.6681 60.6231 81.1596 60.7338 80.6313 60.7338C79.9907 60.7338 79.5152 60.545 79.1916 60.161C78.868 59.777 78.7689 59.3019 78.8944 58.7291C79.0331 58.0978 79.3369 57.6096 79.8124 57.2646C80.2813 56.9197 80.8492 56.7049 81.5162 56.6268L83.405 56.399L83.3918 56.3795ZM81.1002 59.7445C81.5096 59.7445 81.9191 59.6533 82.3418 59.4646C83.0484 59.1587 83.4777 58.651 83.6296 57.9546L83.8211 57.0368C83.6626 57.128 83.4645 57.1996 83.2333 57.2581C82.9956 57.3167 82.771 57.3558 82.5465 57.3818L81.8332 57.4729C81.3974 57.525 81.0672 57.6161 80.8294 57.7333C80.4332 57.935 80.1888 58.2475 80.0897 58.6835C80.0171 59.009 80.0831 59.2693 80.2813 59.4581C80.486 59.6468 80.7568 59.7445 81.087 59.7445" fill="#003DA6"/>
  <path fill-rule="evenodd" clip-rule="evenodd" d="M88.1143 51.1914H89.2238L88.0549 56.5871L91.6476 53.7038H93.1203L89.9437 56.2422L91.8127 60.4858H90.3334L88.9201 57.0688L87.7643 57.9409L87.2228 60.4858H86.1133L88.1143 51.1914Z" fill="#003DA6"/>
  <path fill-rule="evenodd" clip-rule="evenodd" d="M94.1639 53.7363H95.3394L93.8865 60.4858H92.7109L94.1639 53.7363ZM94.7186 51.1914H95.8942L95.6102 52.4801H94.4346L94.7186 51.1914Z" fill="#003DA6"/>
  <path fill-rule="evenodd" clip-rule="evenodd" d="M97.088 53.7044H98.1843L97.9795 54.6677C98.389 54.2706 98.7984 53.9843 99.1947 53.815C99.5976 53.6458 100.02 53.5547 100.463 53.5547C101.44 53.5547 102.021 53.8866 102.219 54.5635C102.332 54.928 102.318 55.4552 102.167 56.1386L101.229 60.4864H100.053L100.978 56.2167C101.064 55.8002 101.077 55.4682 101.004 55.2209C100.885 54.7978 100.562 54.5896 100.02 54.5896C99.7428 54.5896 99.5117 54.6156 99.3268 54.6742C98.99 54.7653 98.6664 54.9541 98.3692 55.2339C98.1248 55.4617 97.9531 55.6895 97.8474 55.9239C97.7352 56.1647 97.6361 56.5031 97.537 56.9457L96.771 60.493H95.6152L97.0682 53.7109L97.088 53.7044Z" fill="#003DA6"/>
  <path fill-rule="evenodd" clip-rule="evenodd" d="M108.183 53.9765C108.368 54.1262 108.546 54.3409 108.711 54.6208L108.896 53.7682H109.959L108.632 59.9319C108.447 60.7911 108.176 61.4745 107.813 61.9691C107.133 62.8869 106.129 63.349 104.795 63.349C104.055 63.349 103.467 63.1863 103.031 62.8608C102.596 62.5354 102.424 62.0277 102.51 61.3248H103.685C103.679 61.6307 103.738 61.865 103.87 62.0277C104.075 62.2815 104.458 62.4052 105.019 62.4052C105.911 62.4052 106.551 62.0928 106.961 61.481C107.205 61.1165 107.417 60.4721 107.602 59.5414C107.298 59.8864 106.968 60.1402 106.604 60.3094C106.241 60.4786 105.792 60.5633 105.257 60.5633C104.511 60.5633 103.916 60.3029 103.467 59.7822C103.025 59.2615 102.932 58.4024 103.19 57.1983C103.434 56.0592 103.903 55.1741 104.603 54.5427C105.303 53.9049 106.05 53.5859 106.842 53.5859C107.384 53.5859 107.826 53.7161 108.169 53.9765M106.835 54.5883C106.023 54.5883 105.389 54.9658 104.927 55.7143C104.676 56.1178 104.484 56.6385 104.352 57.2894C104.187 58.0509 104.214 58.6302 104.445 59.0337C104.676 59.4307 105.052 59.6325 105.587 59.6325C106.419 59.6325 107.08 59.268 107.575 58.526C107.852 58.103 108.051 57.6213 108.169 57.0616C108.354 56.222 108.308 55.5971 108.044 55.1936C107.78 54.79 107.377 54.5883 106.829 54.5883" fill="#003DA6"/>
  <path fill-rule="evenodd" clip-rule="evenodd" d="M116.057 51.1914H117.331L115.568 59.3793H120.336L120.098 60.4858H114.049L116.057 51.1914Z" fill="#003DA6"/>
  <path fill-rule="evenodd" clip-rule="evenodd" d="M122.654 53.7363H123.83L122.377 60.4858H121.201L122.654 53.7363ZM123.209 51.1914H124.384L124.1 52.4801H122.925L123.202 51.1914H123.209Z" fill="#003DA6"/>
  <path fill-rule="evenodd" clip-rule="evenodd" d="M126.147 53.7031L126.794 59.2225L129.905 53.7031H131.166L127.118 60.4852H125.883L124.807 53.7031H126.147Z" fill="#003DA6"/>
  <path fill-rule="evenodd" clip-rule="evenodd" d="M137.25 54.7686C137.408 55.1135 137.481 55.5105 137.454 55.9596C137.454 56.2721 137.382 56.7667 137.236 57.4501H132.197C132.072 58.1401 132.111 58.6933 132.336 59.1034C132.561 59.5199 132.99 59.7282 133.63 59.7282C134.238 59.7282 134.76 59.5329 135.202 59.1424C135.453 58.9146 135.658 58.6543 135.81 58.3483H136.946C136.86 58.5957 136.701 58.8755 136.464 59.1815C136.232 59.4874 135.988 59.7412 135.737 59.93C135.315 60.2684 134.832 60.4962 134.284 60.6134C133.994 60.6785 133.67 60.711 133.313 60.711C132.462 60.711 131.801 60.4051 131.339 59.7933C130.876 59.1815 130.764 58.3223 131.002 57.2158C131.233 56.1289 131.728 55.2437 132.468 54.5603C133.214 53.8834 134.073 53.5449 135.037 53.5449C135.526 53.5449 135.975 53.6556 136.384 53.8834C136.794 54.1047 137.078 54.3976 137.243 54.762M136.232 56.5454C136.292 56.0508 136.272 55.6537 136.16 55.3608C135.962 54.8141 135.493 54.5342 134.753 54.5342C134.218 54.5342 133.736 54.723 133.294 55.1005C132.851 55.478 132.554 55.9596 132.409 56.5389H136.232V56.5454Z" fill="#003DA6"/>
  <path fill-rule="evenodd" clip-rule="evenodd" d="M139.151 58.3542C139.098 58.7317 139.131 59.0246 139.25 59.2264C139.455 59.5973 139.924 59.7796 140.643 59.7796C141.073 59.7796 141.469 59.6885 141.832 59.5062C142.202 59.324 142.427 59.0376 142.506 58.6601C142.572 58.3672 142.493 58.1459 142.261 57.9962C142.11 57.9051 141.806 57.7944 141.337 57.6773L140.472 57.4495C139.917 57.3063 139.521 57.1436 139.283 56.9678C138.847 56.6554 138.689 56.2324 138.814 55.6856C138.953 55.0413 139.296 54.5271 139.844 54.13C140.399 53.733 141.073 53.5312 141.865 53.5312C142.902 53.5312 143.582 53.8306 143.913 54.4294C144.117 54.807 144.17 55.217 144.064 55.6531H142.975C143.008 55.3992 142.968 55.1649 142.849 54.9501C142.651 54.6507 142.222 54.501 141.561 54.501C141.126 54.501 140.776 54.5791 140.518 54.7484C140.26 54.9176 140.102 55.1324 140.036 55.3992C139.97 55.6921 140.069 55.933 140.326 56.1087C140.478 56.2128 140.71 56.3105 141.027 56.3886L141.753 56.5708C142.539 56.7726 143.054 56.9613 143.298 57.1501C143.681 57.443 143.807 57.8986 143.675 58.5234C143.543 59.1287 143.206 59.6494 142.645 60.0855C142.09 60.5216 141.33 60.7429 140.386 60.7429C139.362 60.7429 138.689 60.5151 138.358 60.053C138.035 59.5974 137.929 59.0311 138.041 58.3542H139.158H139.151Z" fill="#003DA6"/>
  <path fill-rule="evenodd" clip-rule="evenodd" d="M150.417 51.1895H151.711L150.879 55.0296H155.786L156.618 51.1895H157.9L155.899 60.4839H154.611L155.549 56.1361H150.642L149.704 60.4839H148.416L150.417 51.1895Z" fill="#003DA6"/>
  <path fill-rule="evenodd" clip-rule="evenodd" d="M162.286 56.3775C162.564 56.345 162.768 56.2343 162.901 56.0521C162.973 55.9544 163.026 55.8047 163.072 55.616C163.152 55.232 163.072 54.9456 162.835 54.7764C162.59 54.6006 162.207 54.516 161.685 54.516C161.084 54.516 160.615 54.6722 160.298 54.9977C160.12 55.1734 159.968 55.4403 159.856 55.7852H158.78C158.978 54.9521 159.381 54.3663 159.982 54.0409C160.582 53.7155 161.23 53.5527 161.93 53.5527C162.742 53.5527 163.363 53.7089 163.799 54.0083C164.235 54.3077 164.386 54.7829 164.248 55.4272L163.402 59.3325C163.383 59.4496 163.383 59.5472 163.416 59.6188C163.449 59.6904 163.541 59.7295 163.7 59.7295C163.752 59.7295 163.812 59.7295 163.871 59.723C163.944 59.723 164.01 59.71 164.089 59.6969L163.904 60.5366C163.719 60.5886 163.574 60.6147 163.475 60.6342C163.383 60.6472 163.251 60.6537 163.085 60.6537C162.689 60.6537 162.425 60.5105 162.306 60.2307C162.24 60.081 162.22 59.8727 162.24 59.6058C161.936 59.9117 161.54 60.1721 161.051 60.3999C160.569 60.6212 160.061 60.7318 159.526 60.7318C158.885 60.7318 158.403 60.5431 158.086 60.1591C157.763 59.775 157.663 59.2999 157.789 58.7271C157.928 58.0958 158.231 57.6077 158.707 57.2627C159.176 56.9177 159.744 56.7029 160.411 56.6248L162.3 56.397L162.286 56.3775ZM159.995 59.7425C160.404 59.7425 160.814 59.6514 161.236 59.4626C161.943 59.1567 162.372 58.649 162.531 57.9526L162.722 57.0349C162.564 57.126 162.366 57.1976 162.134 57.2562C161.903 57.3148 161.672 57.3538 161.448 57.3798L160.728 57.471C160.299 57.523 159.962 57.6142 159.724 57.7313C159.328 57.9331 159.077 58.2455 158.984 58.6816C158.912 59.007 158.984 59.2674 159.182 59.4561C159.387 59.6449 159.651 59.7425 159.988 59.7425" fill="#003DA6"/>
  <path fill-rule="evenodd" clip-rule="evenodd" d="M166.393 53.7343H167.522L167.331 54.6325C167.628 54.3266 167.931 54.0858 168.242 53.9166C168.691 53.6627 169.173 53.5391 169.701 53.5391C170.481 53.5391 171.075 53.8319 171.491 54.4242C171.907 55.01 172 55.8562 171.762 56.9431C171.445 58.4206 170.824 59.475 169.906 60.1063C169.325 60.5099 168.704 60.7051 168.044 60.7051C167.529 60.7051 167.119 60.588 166.809 60.3732C166.63 60.2495 166.452 60.0282 166.267 59.7223L165.521 63.1849H164.365L166.399 53.7343H166.393ZM170.553 57.0538C170.672 56.5135 170.692 56.0514 170.613 55.6609C170.474 54.9124 170.012 54.5414 169.213 54.5414C168.414 54.5414 167.78 54.9384 167.317 55.726C167.066 56.149 166.868 56.6828 166.73 57.3336C166.617 57.8608 166.604 58.3034 166.683 58.6679C166.829 59.3708 167.297 59.7223 168.09 59.7223C168.632 59.7223 169.127 59.4945 169.583 59.0519C170.038 58.6028 170.362 57.9389 170.547 57.0538" fill="#003DA6"/>
  <path fill-rule="evenodd" clip-rule="evenodd" d="M173.71 53.7343H174.833L174.641 54.6325C174.938 54.3266 175.242 54.0858 175.552 53.9166C175.995 53.6627 176.484 53.5391 177.005 53.5391C177.785 53.5391 178.386 53.8319 178.795 54.4242C179.211 55.01 179.304 55.8562 179.066 56.9431C178.749 58.4206 178.128 59.475 177.217 60.1063C176.629 60.5099 176.015 60.7051 175.354 60.7051C174.839 60.7051 174.43 60.588 174.119 60.3732C173.941 60.2495 173.756 60.0282 173.578 59.7223L172.832 63.1849H171.676L173.71 53.7343ZM177.871 57.0538C177.983 56.5135 178.003 56.0514 177.93 55.6609C177.798 54.9124 177.329 54.5414 176.53 54.5414C175.731 54.5414 175.097 54.9384 174.628 55.726C174.383 56.149 174.185 56.6828 174.047 57.3336C173.934 57.8608 173.921 58.3034 174 58.6679C174.152 59.3708 174.621 59.7223 175.414 59.7223C175.949 59.7223 176.451 59.4945 176.9 59.0519C177.355 58.6028 177.679 57.9389 177.871 57.0538Z" fill="#003DA6"/>
  <path fill-rule="evenodd" clip-rule="evenodd" d="M181.114 53.7344H182.29L180.844 60.4839H179.668L181.121 53.7344H181.114ZM181.662 51.1895H182.845L182.561 52.4782H181.385L181.669 51.1895H181.662Z" fill="#003DA6"/>
  <path fill-rule="evenodd" clip-rule="evenodd" d="M189.139 54.7686C189.297 55.1135 189.363 55.5105 189.343 55.9596C189.343 56.2721 189.277 56.7667 189.126 57.4501H184.093C183.961 58.1401 184.007 58.6933 184.232 59.1034C184.456 59.5199 184.886 59.7282 185.533 59.7282C186.134 59.7282 186.656 59.5329 187.098 59.1424C187.349 58.9146 187.56 58.6543 187.706 58.3483H188.842C188.756 58.5957 188.597 58.8755 188.366 59.1815C188.135 59.4874 187.884 59.7412 187.64 59.93C187.217 60.2684 186.728 60.4962 186.187 60.6134C185.896 60.6785 185.572 60.711 185.216 60.711C184.364 60.711 183.697 60.4051 183.241 59.7933C182.779 59.1815 182.667 58.3223 182.911 57.2158C183.149 56.1289 183.637 55.2437 184.377 54.5603C185.123 53.8834 185.982 53.5449 186.946 53.5449C187.435 53.5449 187.884 53.6556 188.293 53.8834C188.709 54.1047 188.993 54.3976 189.152 54.762M188.148 56.5454C188.208 56.0508 188.181 55.6537 188.075 55.3608C187.877 54.8141 187.408 54.5342 186.675 54.5342C186.14 54.5342 185.658 54.723 185.216 55.1005C184.773 55.478 184.476 55.9596 184.331 56.5389H188.148V56.5454Z" fill="#003DA6"/>
  <path fill-rule="evenodd" clip-rule="evenodd" d="M191.384 53.7024H192.48L192.229 54.874C192.368 54.6462 192.646 54.3728 193.068 54.0409C193.491 53.7155 193.927 53.5527 194.389 53.5527C194.415 53.5527 194.448 53.5527 194.495 53.5527C194.547 53.5527 194.633 53.5658 194.759 53.5788L194.495 54.7829C194.429 54.7699 194.363 54.7568 194.31 54.7568C194.25 54.7568 194.191 54.7568 194.118 54.7568C193.537 54.7568 193.048 54.9391 192.659 55.3101C192.269 55.6746 192.018 56.1041 191.912 56.5793L191.074 60.478H189.918L191.378 53.6959L191.384 53.7024Z" fill="#003DA6"/>
</svg>