<svg xmlns="http://www.w3.org/2000/svg" width="110" height="56" viewBox="0 0 110 56" fill="none">
  <path d="M13.0744 0C13.0744 0 6.41466 7.7566 9.01871 18.577C9.87176 22.134 11.7425 25.3472 14.1071 28.142C23.7002 39.4406 39.549 48.2284 67.5949 52.8914C67.5949 52.8914 45.3557 57.0462 19.2703 43.1022C16.0078 41.3536 12.9697 39.2314 10.2609 36.6907C4.76842 31.5196 -0.245135 24.6896 0.00928403 15.6776C0.0841132 12.569 0.84737 9.47531 2.50858 6.84494C6.14527 1.07606 11.7724 0 13.0744 0Z" fill="#EC8922"/>
  <path d="M22.413 24.8839H109.649" stroke="#EE8621" stroke-width="1.02304"/>
  <path d="M33.6974 23.2698C27.2172 23.2698 23.9846 18.9955 23.9846 12.4195C23.9846 5.63439 27.3968 1.53938 34.0715 1.53938C36.6456 1.53938 38.7259 2.16708 40.3123 3.46732C41.7939 4.79745 42.632 6.62078 42.8565 8.92235H40.2524C39.3245 8.92235 38.6361 8.48894 38.232 7.652C37.5137 6.12758 36.1218 5.35043 34.0715 5.35043C30.0607 5.35043 28.2947 8.17509 28.2947 12.4195C28.2947 16.5444 30.0008 19.4588 33.9518 19.4588C36.6456 19.4588 38.2021 17.9792 38.666 15.6477H42.8565C42.4524 20.5199 39.0402 23.2698 33.6974 23.2698Z" fill="#092C4C"/>
  <path fill-rule="evenodd" clip-rule="evenodd" d="M49.1869 10.8353H45.0564C45.5502 7.80145 47.6904 6.32187 51.4767 6.32187C56.0114 6.32187 58.3161 7.80145 58.4059 10.8353V16.4249C58.4059 20.9533 55.6671 22.9709 51.2373 23.2698C47.2863 23.5837 44.5625 21.7604 44.5625 18.1286C44.6523 14.1831 47.5108 13.1369 51.6713 12.7334C53.4372 12.5092 54.3352 11.9861 54.3352 11.0894C54.2454 10.1628 53.3774 9.6995 51.6713 9.6995C50.2046 9.6995 49.3965 10.0731 49.1869 10.8353ZM54.395 16.2306V14.7211C53.4372 15.1246 52.3148 15.4684 51.1175 15.7075C49.4713 16.0214 48.6332 16.7985 48.6332 18.0091C48.723 19.3093 49.3965 19.9221 50.7135 19.9221C53.0032 19.9221 54.395 18.5621 54.395 16.2306Z" fill="#092C4C"/>
  <path d="M75.4071 6.56099L69.6153 22.9709H65.2303L59.4535 6.56099H64.0181L67.3405 18.0689L70.199 8.02563C70.5132 7.05418 71.1867 6.56099 72.2193 6.56099H75.4071Z" fill="#092C4C"/>
  <path d="M79.1036 1.88312C80.4655 1.88312 81.124 2.5706 81.0941 3.90073V5.1113H76.9635V1.88312H79.1036ZM79.1036 6.56099C80.4356 6.56099 81.0941 7.21858 81.0941 8.54871V22.9709H76.9635V6.56099H79.1036Z" fill="#092C4C"/>
  <path d="M95.3116 22.9709C93.9498 22.8663 93.2613 22.2237 93.2613 20.9234V12.4793C93.1715 10.7756 92.2287 9.93863 90.4029 9.93863C88.577 9.93863 87.6342 10.7756 87.6042 12.4793V22.9709H83.4138V13.3163C83.4138 8.63839 85.7784 6.32187 90.4627 6.32187C95.147 6.32187 97.4518 8.63839 97.4218 13.3163V22.9709H95.3116Z" fill="#092C4C"/>
  <path d="M23.4457 29.6066C23.4457 29.1134 23.6851 28.8593 24.164 28.8593H24.8824V35.8836H23.4457V29.6066Z" fill="#092C4C"/>
  <path d="M30.2701 28.8593H31.0483L33.9068 33.6717V28.8593H35.3286V35.8836H33.832L30.9585 31.0563V35.8836H29.5518V29.6066C29.5518 29.2031 29.866 28.8593 30.2701 28.8593Z" fill="#092C4C"/>
  <path d="M43.4251 32.775H41.4347V35.8836H40.0129V29.6066C40.0129 29.2031 40.3422 28.8593 40.7463 28.8593H45.1163V30.0699H41.4347V31.5794H44.1884V32.0427C44.1884 32.4462 43.8292 32.775 43.4251 32.775Z" fill="#092C4C"/>
  <path fill-rule="evenodd" clip-rule="evenodd" d="M49.5911 32.3715C49.5911 30.2194 50.8781 28.7398 52.9584 28.7398C55.0536 28.7398 56.3407 30.2343 56.3407 32.3715C56.3407 34.5236 55.0985 35.9883 52.9584 35.9883C50.8183 35.9883 49.5911 34.5087 49.5911 32.3715ZM51.0427 32.3715C51.0427 33.7465 51.6414 34.7777 52.9584 34.7777C54.2754 34.7777 54.889 33.7764 54.889 32.3715C54.889 30.9816 54.2754 29.9802 52.9584 29.9802C51.6414 29.9802 51.0427 30.9965 51.0427 32.3715Z" fill="#092C4C"/>
  <path d="M61.3841 28.8593H66.248V30.0998H64.1827V35.8836H62.731V30.0998H60.6508V29.6066C60.6508 29.2031 60.98 28.8593 61.3841 28.8593Z" fill="#092C4C"/>
  <path d="M70.8873 29.6066C70.8873 29.1284 71.1268 28.8593 71.6057 28.8593H75.9757V30.0699H72.3091V31.5794H75.0478V32.0427C75.0628 32.5359 74.8084 32.775 74.2995 32.775H72.3091V34.5834H75.9757V35.8836H70.8873V29.6066Z" fill="#092C4C"/>
  <path d="M83.788 35.9883C81.6329 35.9883 80.5554 34.5535 80.5554 32.3715C80.5554 30.0998 81.6928 28.7398 83.9227 28.7398C84.7757 28.7398 85.4641 28.949 85.988 29.3824C86.4968 29.8159 86.7662 30.4286 86.841 31.1908H85.973C85.6587 31.1908 85.4342 31.0563 85.2995 30.7724C85.0601 30.2642 84.5961 30.0101 83.9227 30.0101C82.5757 30.0101 81.9921 30.9517 81.9921 32.3715C81.9921 33.7465 82.5608 34.7179 83.8778 34.7179C84.7757 34.7179 85.2995 34.2098 85.4492 33.4326H86.841C86.7063 35.0616 85.5689 35.9883 83.788 35.9883Z" fill="#092C4C"/>
  <path d="M92.1988 28.8593H92.9321V31.4748H95.8205V28.8593H97.2722V35.8836H95.8205V32.775H92.9321V35.8836H91.4655V29.6066C91.4655 29.2031 91.7947 28.8593 92.1988 28.8593Z" fill="#092C4C"/>
  <path d="M47.3462 48.2285C47.3462 52.5178 43.8592 56 39.549 56C35.2538 56 31.7668 52.5178 31.7668 48.2285C31.7668 43.9242 35.2538 40.442 39.549 40.442C43.8592 40.442 47.3462 43.9242 47.3462 48.2285Z" fill="#092C4C"/>
</svg>